<?xml version="1.0" encoding="UTF-8"?>
<svg width="141px" height="183px" viewBox="0 0 141 183" version="1.1" xmlns="http://www.w3.org/2000/svg" xmlns:xlink="http://www.w3.org/1999/xlink">
    <title>南京大学logo</title>
    <g id="Page-1" stroke="none" stroke-width="1" fill="none" fill-rule="evenodd">
        <g id="南京大学logo" transform="translate(70.500000, 91.160000) rotate(180.000000) translate(-70.500000, -91.160000) translate(0.000000, 0.160000)" fill="#630460">
            <g id="q25" transform="translate(0.000000, 0.000000)">
                <g id="xfrm26" transform="translate(0.245100, 0.710900)">
                    <path d="M139,180 C139.814,159.377 138.054,138.335 138.73,117.573 C139.273,96.951 139.814,75.49 134.665,59.35 C129.652,43.92 120.167,31.86 108.919,23.16 C97.267,14.18 82.769,9.13 69.76,0.71 C58.649,8.43 46.181,12.5 35.75,19.37 C25.32,26.25 16.78,35.5 10.41,47.01 C7.16,52.9 4.45,59.35 3.09,66.37 C-1.52,88.953 2.14,118.975 0.38,145.069 L0.38,180.42 C9.32,175.089 21.25,171.302 35.21,171.302 C48.621,171.302 60.951,173.687 69.896,179.578 C78.296,173.687 91.306,171.302 105.125,171.302 C116.779,171.302 127.754,174.249 135.75,178.456 C137.104,179.158 138.188,180.14 139,180 M134.396,115.187 C134.396,134.969 134.53,154.609 134.665,173.687 C125.586,169.758 114.746,167.093 102.145,167.374 C90.221,167.513 78.296,169.9 69.896,174.669 C55.125,165.551 25.32,165.269 8.24,172.424 C7.29,172.844 6.07,173.687 4.99,173.407 C4.85,154.187 5.26,134.547 5.26,115.047 C5.26,95.126 4.04,76.05 9.19,60.75 C14.07,46.17 22.06,34.52 32.63,26.11 C43.336,17.83 57.157,13.34 70.165,6.04 C82.769,13.48 96.588,17.69 107.158,26.11 C117.593,34.66 125.721,46.03 130.464,60.75 C135.207,76.19 134.396,95.267 134.396,115.187" id="Shape"></path>
                </g>
            </g>
            <g id="q27" transform="translate(118.000000, 89.000000)">
                <g id="xfrm28" transform="translate(0.083000, 0.239700)">
                    <path d="M11,8 C11.68,7.018 11.136,4.633 11,2.809 C10.322,2.809 10.865,4.073 10.46,4.494 C6.393,5.476 4.359,2.952 1.785,1.829 C1.38,1.547 1.245,0.707 0.839,0.285 C0.16,0.987 0.431,3.934 0.701,5.056 C1.245,5.056 1.109,4.073 1.245,3.651 C3.005,4.073 4.089,5.335 5.853,5.756 C4.768,6.878 3.278,7.72 1.785,8.422 C0.839,8.703 1.65,7.018 0.839,7.018 C0.16,7.58 0.975,9.685 0.701,10.947 L1.245,10.947 C2.87,8.14 5.987,5.756 10.322,6.458 C10.865,6.598 10.46,7.86 11,8" id="Path"></path>
                </g>
            </g>
            <g id="q29" transform="translate(117.000000, 77.000000)">
                <g id="xfrm30" transform="translate(0.948200, 0.455600)">
                    <path d="M11,8 C11.541,7.3 11.135,4.213 11,2.951 C10.321,2.951 10.457,3.793 10.457,4.493 C7.611,5.056 4.089,4.633 1.244,5.056 C0.16,2.811 2.464,2.249 3.274,1.127 C2.464,0.567 1.244,1.127 0.16,1.127 C0.431,4.213 0.431,7.44 0.565,10.667 C1.515,10.527 2.869,10.946 3.548,10.387 C2.734,9.265 0.565,9.404 1.244,6.878 C4.089,6.458 6.527,6.458 10.051,6.458 C10.729,6.598 10.321,7.86 11,8" id="Path"></path>
                </g>
            </g>
            <g id="q31" transform="translate(96.000000, 131.000000)">
                <g id="xfrm32" transform="translate(0.323200, 0.339800)">
                    <path d="M31,15 C33.03,11.913 31.136,6.022 32.082,2.236 C30.592,1.253 28.018,0.411 25.714,0.831 C24.089,2.656 25.984,4.62 26.393,6.022 C25.308,7.145 23.681,5.462 22.19,5.462 C21.785,3.076 20.295,1.953 18.532,0.831 C16.094,0.691 10.539,0.411 10.539,3.076 C10.539,4.62 12.029,3.918 12.57,5.32 C11.895,6.584 9.995,6.725 9.182,6.442 C6.879,5.742 7.422,1.253 4.033,1.533 C2.814,1.533 0.78,2.516 0.916,4.62 C1.324,5.18 2.272,4.9 2.814,5.32 C4.577,7.145 4.577,11.353 2.408,12.615 C1.324,19.629 5.659,21.173 7.827,24.82 C7.962,25.802 7.422,26.224 7.422,27.347 C8.098,28.326 10.131,28.326 10.131,29.591 C11.895,29.731 13.52,29.731 15.279,30.151 C17.583,28.889 19.075,24.96 18.532,21.733 C18.397,20.331 17.042,19.489 17.178,17.947 C19.347,16.262 21.785,18.086 23.818,18.227 C26.393,18.367 29.643,17.104 31,15 M30.727,9.811 C31,10.511 30.862,11.353 30.051,11.493 C30.187,10.791 29.915,9.669 30.727,9.811 M30.727,12.896 C30.727,13.877 29.78,14.018 29.102,14.44 C29.236,13.738 29.102,13.318 28.967,12.896 L30.727,12.896 Z M29.915,7.284 C30.457,6.302 28.831,5.462 29.508,4.48 C33.439,6.864 27.612,8.546 27.747,11.493 C26.798,10.511 25.984,12.335 25.173,11.213 C25.849,10.651 26.257,10.091 27.477,10.511 C27.747,8.969 28.423,7.564 29.915,7.284 M24.494,16.544 C24.765,15.282 26.527,14.58 27.612,15.422 C27.068,16.824 25.984,16.544 24.494,16.544 M22.869,15.842 L22.869,16.824 L22.19,16.824 C21.92,16.262 21.785,16.262 22.056,15.562 C22.461,15.562 22.461,15.842 22.869,15.842 M19.211,13.877 C19.617,14.018 19.617,15 18.94,15 C18.803,14.86 18.397,13.598 19.211,13.877 M18.397,12.476 C18.668,13.458 17.448,13.738 16.907,13.178 L16.907,12.615 C17.312,12.476 17.719,12.335 18.397,12.476 M18.263,6.302 C17.178,5.602 16.637,7.145 15.553,6.442 C15.01,6.725 15.823,8.126 14.874,8.126 C15.145,5.882 14.197,4.48 12.841,3.498 C13.925,3.076 14.604,3.076 15.687,3.498 C16.094,3.918 15.687,5.18 16.229,5.32 C17.448,5.32 16.229,2.936 17.448,3.076 C17.312,4.9 17.312,5.32 18.263,6.302 M17.178,7.847 C17.583,8.546 17.448,8.969 17.448,9.811 C15.418,10.651 12.165,10.231 12.029,13.038 C11.895,13.598 12.978,13.038 12.841,13.877 C12.3,14.3 11.759,13.038 11.08,13.598 C11.08,14.3 12.029,14.86 11.486,15.422 C11.351,14.72 10.131,15.14 9.317,15 C9.317,13.458 9.86,12.476 11.486,12.615 C11.895,11.633 12.435,10.651 13.384,10.091 C15.01,10.511 15.823,8.407 17.178,7.847 M17.042,26.364 C17.178,26.784 17.042,27.064 16.907,27.347 L16.229,27.347 C16.363,26.924 16.499,26.364 17.042,26.364 M16.637,15.422 C18.127,17.667 13.384,18.086 12.435,19.771 C14.061,19.489 13.654,21.875 15.145,20.753 C15.01,21.453 14.604,21.875 14.197,22.155 C13.654,21.453 13.52,20.611 12.57,20.331 C10.944,21.313 7.962,21.593 6.879,20.051 C7.016,19.209 6.607,17.807 7.422,17.807 C8.098,18.367 7.827,19.771 8.776,20.051 C9.047,19.911 9.317,19.629 9.317,19.349 C8.912,18.649 9.047,17.667 9.317,16.824 C10.266,16.824 9.86,18.086 10.539,18.367 C12.57,19.209 12.705,16.824 14.604,17.667 C15.418,16.964 15.958,16.122 16.637,15.422 M14.333,25.942 C13.789,26.504 14.061,27.906 13.384,28.326 C12.841,27.347 13.52,26.082 14.333,25.942 M13.925,23.98 C13.654,25.942 12.165,26.644 10.675,27.347 C11.351,25.802 12.705,24.82 13.925,23.98 M12.435,22.436 C12.57,23.558 9.995,23.558 9.995,22.436 C10.675,22.155 11.486,22.716 12.435,22.436 M12.57,16.404 C12.57,17.244 11.621,17.667 10.944,17.244 C10.81,16.544 11.486,16.404 11.486,15.842 C12.029,15.842 12.165,16.262 12.57,16.404 M7.016,21.593 C7.691,21.733 8.235,22.016 8.235,22.998 C7.557,23.417 6.879,22.575 7.016,21.593 M5.388,17.384 C6.202,17.104 6.337,18.509 5.932,18.789 C5.659,18.367 5.253,18.086 5.388,17.384" id="Shape"></path>
                </g>
            </g>
            <g id="q33" transform="translate(117.000000, 69.000000)">
                <g id="xfrm34" transform="translate(-0.001000, 0.935500)">
                    <path d="M11,5 C11.544,4.158 10.865,1.071 10.324,0.089 C9.646,-0.051 10.595,1.354 10.051,1.634 C7.206,2.193 4.362,2.616 1.38,2.896 C0.704,2.755 0.839,1.773 0.431,1.493 C-0.516,2.616 0.704,4.86 0.566,6.402 L1.109,6.402 C1.244,5.842 1.109,5.14 1.38,4.86 C3.818,4.158 7.071,4.158 9.646,3.455 C10.595,3.455 10.46,4.578 11,5" id="Path"></path>
                </g>
            </g>
            <g id="q35" transform="translate(114.000000, 58.000000)">
                <g id="xfrm36" transform="translate(0.496100, 0.906200)">
                    <path d="M7,2 C8.896,2.982 11.607,2.42 11.199,5.507 C11.063,6.069 10.658,6.909 9.979,7.192 C7.135,8.032 7.676,4.245 4.832,3.123 C1.174,1.72 -0.86,6.77 1.987,9.156 C1.987,9.576 1.579,9.716 1.714,10.278 C2.799,9.996 4.832,9.716 5.237,9.296 C4.696,8.173 3.477,8.874 2.528,8.314 C1.174,7.471 0.63,4.385 3.342,4.524 C5.508,4.665 6.727,10.838 10.388,8.594 C12.014,7.611 12.419,3.685 10.388,2 C9.979,1.581 11.199,1.438 10.522,0.738 C9.304,1.158 7.541,1.019 7,2" id="Path"></path>
                </g>
            </g>
            <g id="q37" transform="translate(109.000000, 48.000000)">
                <g id="xfrm38" transform="translate(0.475600, 0.239700)">
                    <path d="M15,10 C15.136,9.161 14.187,7.755 13.51,7.056 C11.207,6.776 8.362,7.196 7.549,5.934 C8.09,4.529 9.717,4.529 10.801,3.689 C11.612,3.689 11.478,4.672 12.155,4.672 C12.155,3.41 10.666,1.023 9.987,0.462 C9.174,0.462 10.393,1.163 9.987,1.865 C7.819,3.689 5.11,4.812 2.535,6.213 C1.587,6.493 1.857,5.231 0.772,5.511 C1.722,8.598 5.516,15.332 8.497,10.283 C8.497,9.58 8.633,8.598 8.362,8.318 C10.801,8.598 13.646,8.598 15,10 M7.008,5.934 C8.228,7.898 7.278,10.983 4.296,10.423 C3.755,9.721 3.076,9.161 2.941,8.038 C4.296,7.336 5.516,6.493 7.008,5.934" id="Shape"></path>
                </g>
            </g>
            <g id="q39" transform="translate(103.000000, 38.000000)">
                <g id="xfrm40" transform="translate(0.534200, 0.580100)">
                    <path d="M12,9 C12.949,9.14 13.49,7.315 14.574,7.035 C12.541,4.791 10.781,1.284 8.477,0.021 C8.477,0.723 9.288,1.145 8.883,1.564 C6.986,3.809 4.548,5.491 2.379,7.315 C1.565,7.456 1.295,6.193 0.616,6.756 C2.106,9.28 4.275,11.105 5.767,13.489 C6.443,13.069 7.663,12.227 7.663,11.804 C7.528,10.822 6.309,11.945 5.359,11.524 C5.224,11.245 3.055,9.7 3.055,9.14 C3.19,8.019 5.494,7.456 6.173,6.333 C7.663,6.756 7.799,8.86 6.986,9.982 C8.207,9.982 9.288,8.019 10.646,7.315 C9.562,7.035 7.393,7.737 6.986,6.053 C7.934,5.071 8.883,3.106 10.237,3.247 C12.271,3.247 13.49,6.756 12,9" id="Path"></path>
                </g>
            </g>
            <g id="q41" transform="translate(25.000000, 33.000000)">
                <g id="xfrm42" transform="translate(0.960000, 0.402300)">
                    <path d="M87,94 C87,70.993 89.031,46.162 81.984,30.309 C74.94,14.038 59.898,7.585 44.181,0.289 C28.327,7.302 13.555,14.038 6.238,29.889 C-1.079,45.603 1.496,70.151 0.955,93.438 C0.955,93.86 1.09,94 1.36,94 L87,94 Z M48.787,35.08 L73.99,35.08 C73.178,36.762 71.958,38.026 70.873,39.429 C62.338,39.007 52.175,47.004 44.721,40.551 C38.488,46.022 29.681,40.971 23.041,39.849 C21.28,39.429 19.247,39.709 18.027,39.149 C16.538,38.586 15.724,36.062 15.048,35.08 L40.792,35.08 C40.792,34.237 40.386,33.958 40.521,32.975 L48.787,32.975 C48.923,33.677 48.244,34.518 48.787,35.08 M44.994,42.516 C50.956,48.969 59.898,41.111 68.57,42.936 C62.878,46.864 56.24,49.669 51.902,54.86 C53.936,54.158 56.375,53.737 59.357,53.878 C55.562,58.789 49.463,62.155 47.838,68.608 C49.328,68.186 50.548,67.767 52.445,67.767 C50.818,70.431 49.192,73.097 47.838,76.042 C46.483,78.849 45.535,82.076 44.181,85.162 C42.96,79.129 39.978,73.657 37.269,69.591 C36.999,69.029 36.32,68.469 36.593,67.767 C38.488,67.767 39.708,68.186 41.198,68.608 C38.759,62.155 33.61,58.646 29.411,54.158 C32.391,54.018 34.965,54.158 37.134,54.86 L37.134,54.72 C36.999,54.72 36.863,54.72 36.863,54.44 C32.662,50.651 27.513,47.145 22.365,44.62 C21.551,44.198 20.602,43.778 20.196,42.936 C28.462,41.533 38.488,48.546 44.994,42.516 M52.311,14.878 C53.122,16.842 56.24,17.264 55.969,19.929 C55.562,22.453 50.956,22.173 51.633,19.509 C52.716,19.649 52.311,20.771 53.257,20.911 C54.071,21.051 54.75,20.771 55.02,19.929 C55.562,17.545 50.818,16.562 51.091,14.178 C52.581,14.458 55.426,13.476 55.969,14.737 C55.02,15.16 53.395,14.878 52.311,14.878 M45.129,14.598 C49.328,10.528 51.633,24.277 45.399,21.331 C44.315,19.929 43.774,15.86 45.129,14.598 M40.792,14.178 C42.417,14.598 42.69,18.247 42.283,19.649 C41.606,22.593 38.083,21.613 37.675,20.068 C36.593,15.86 40.657,16.562 41.471,17.264 C41.335,16 41.062,14.737 39.572,14.737 C38.624,14.598 39.032,16 38.083,16 C37.675,14.178 39.302,13.755 40.792,14.178 M34.016,14.178 C34.154,16.142 34.83,20.349 33.61,21.753 C33.34,20.491 31.85,20.631 31.577,19.366 C32.121,18.526 32.934,20.209 33.205,19.649 C33.475,17.964 32.797,15.16 33.61,14.178 L34.016,14.178 Z" id="Shape"></path>
                </g>
            </g>
            <g id="q43" transform="translate(94.000000, 30.000000)">
                <g id="xfrm44" transform="translate(0.202100, 0.951200)">
                    <path d="M9,12 C8.864,8.491 12.252,4.143 11.438,0.916 C8.594,2.74 5.479,4.564 2.631,6.529 C1.683,6.669 1.276,5.827 0.736,6.246 C1.412,7.649 5.884,10.735 3.58,8.071 C5.479,6.387 7.917,5.125 10.083,3.862 C10.083,6.246 8.864,9.054 8.053,11.298 C7.374,11.157 6.968,10.735 6.29,10.596 C6.29,11.857 8.458,12.561 9.137,13.682 C9.948,12.979 9,12.84 9,12" id="Path"></path>
                </g>
            </g>
            <g id="q45" transform="translate(89.000000, 24.000000)">
                <g id="xfrm46" transform="translate(0.427700, 0.097700)">
                    <path d="M7,3 C7.676,2.438 8.49,3.28 8.896,2.721 C7.949,1.737 5.916,0.756 4.562,0.616 C4.562,1.458 5.646,1.176 5.646,2.019 C4.562,4.824 3.207,7.489 1.853,10.156 C1.173,10.436 0.495,9.594 0.089,10.156 C1.173,11.136 3.207,12.258 4.562,12.258 C4.291,11.698 3.612,11.558 3.342,10.996 C4.562,8.331 5.916,5.664 7,3" id="Path"></path>
                </g>
            </g>
            <g id="q47" transform="translate(76.000000, 18.000000)">
                <g id="xfrm48" transform="translate(0.330100, 0.749000)">
                    <path d="M14,4 C12.237,3.438 10.748,5.262 9.258,6.104 C7.495,7.086 5.734,8.069 4.244,8.909 C4.92,6.385 5.87,4.28 7.09,2.175 C7.768,2.035 8.715,2.315 9.258,2.035 C8.038,1.193 6.14,0.211 4.92,0.211 C4.92,0.913 5.87,0.913 5.87,1.756 C6.275,4 3.16,7.929 2.481,9.751 C1.805,10.033 1.127,9.191 0.721,9.751 C0.586,10.594 2.617,10.733 3.295,11.296 C6.275,9.892 8.85,7.929 11.832,6.385 C11.289,8.769 10.207,10.733 9.258,12.697 C8.309,12.978 7.768,12.278 7.225,12.697 C8.038,13.96 10.069,13.96 11.153,14.942 C12.103,14.1 10.342,14.1 10.342,13.118 C11.289,9.751 12.781,6.946 14,4" id="Path"></path>
                </g>
            </g>
            <g id="q49" transform="translate(77.000000, 144.000000)">
                <g id="xfrm50" transform="translate(0.858400, 0.319800)">
                    <path d="M8,11 C9.625,9.175 10.033,1.74 7.729,0.478 C6.78,0.478 6.916,1.32 7.051,2.02 C5.426,3.564 1.358,2.16 0.14,4.404 C2.443,5.949 5.29,3.984 7.459,3.984 C7.864,5.529 6.239,5.529 5.426,5.809 C3.8,6.369 1.358,6.229 0.004,7.351 C1.358,9.736 5.29,7.351 7.459,7.211 C7.051,10.438 2.309,9.175 0.004,10.438 C-0.131,13.102 5.155,11.14 6.645,10.578 C7.321,10.438 7.595,11.7 8,11" id="Path"></path>
                </g>
            </g>
            <g id="q51" transform="translate(52.000000, 131.000000)">
                <g id="xfrm52" transform="translate(0.064500, 0.613300)">
                    <path d="M30,31 C31.49,29.458 33.658,27.073 33.115,24.546 C31.084,25.389 30.541,28.195 28.915,29.877 C26.747,32.122 23.768,32.964 20.379,34.086 C20.92,31 22.275,28.895 22.953,25.809 C27.561,24.406 22.004,23.144 19.024,23.847 C18.616,23.004 19.024,21.32 18.89,20.058 C20.379,19.638 22.953,20.62 24.578,19.917 C24.578,16.831 21.464,18.795 18.89,18.375 C18.89,16.831 19.024,15.429 18.076,15.009 C24.038,14.586 29.729,14.167 33.523,11.5 C32.574,8.556 30.541,5.749 28.103,4.066 C26.206,2.662 23.494,1.4 20.92,1.82 C20.92,4.347 24.308,3.225 25.393,4.626 C24.038,5.469 22.004,5.469 19.974,5.609 C19.836,4.767 20.379,2.102 19.7,1.26 C18.076,0.558 14.011,0.84 14.282,2.242 C14.552,3.504 16.721,2.662 18.346,2.662 C18.346,3.645 18.346,4.767 18.076,5.609 C15.231,5.749 12.927,5.329 10.759,4.767 C11.3,3.645 14.011,4.066 13.333,2.242 C8.049,2.662 4.526,6.731 2.493,11.36 C6.016,14.026 11.708,14.446 17.533,14.727 C17.533,15.289 16.856,16.691 17.126,18.093 C15.366,19.075 11.979,17.111 11.165,19.075 C11.708,21.04 15.093,19.498 16.991,20.058 C17.397,20.9 16.991,22.582 17.126,23.707 C14.958,24.546 12.249,22.582 11.165,24.687 C11.3,25.528 12.113,25.668 13.063,25.668 C13.468,28.755 14.823,30.86 15.636,33.667 C9.404,33.244 5.473,28.895 3.441,23.424 C5.473,23.564 8.861,25.528 10.215,23.707 C8.861,21.32 3.441,23.564 2.763,20.058 C4.253,19.638 8.455,22.442 10.215,20.337 C8.861,17.953 3.034,20.197 2.763,16.691 C4.391,16.411 8.049,18.936 9.81,16.971 C8.996,14.866 4.661,16.271 3.306,14.727 C3.034,14.307 3.577,12.904 2.763,12.764 C1.408,13.044 1.138,14.586 1.003,15.708 C-0.352,27.633 7.371,34.367 16.313,36.051 C16.856,38.295 19.16,39.278 19.295,36.051 C23.358,35.349 27.426,33.667 30,31 M27.696,6.029 C29.186,7.291 30.541,8.695 31.355,10.8 C23.902,13.744 11.3,13.884 4.661,10.518 C5.61,8.695 7.1,7.433 8.455,6.029 C9.675,6.168 10.351,6.871 11.708,6.731 C11.3,8.273 9.131,8.133 8.861,9.958 C10.759,11.922 15.501,12.482 19.431,12.202 C22.412,11.922 26.07,11.64 27.152,9.818 C26.747,8.273 24.986,8.133 24.308,7.011 C25.393,6.731 26.611,6.311 27.696,6.029 M18.89,25.668 L21.193,25.668 C20.108,28.615 19.7,32.122 17.669,34.226 C16.721,31.422 15.501,28.755 14.823,25.668 L16.991,25.668 C16.991,26.791 17.262,27.493 18.346,27.633 C18.89,27.354 18.89,26.651 18.89,25.668 M24.038,9.538 C20.785,10.66 15.636,10.66 11.979,9.538 C14.011,6.871 22.004,6.871 24.038,9.538" id="Shape"></path>
                </g>
            </g>
            <g id="q53" transform="translate(63.000000, 15.000000)">
                <g id="xfrm54" transform="translate(0.288100, 0.940400)">
                    <path d="M12,12 C12.135,11.157 10.916,11.577 10.78,11.157 C9.562,8.913 10.916,5.826 10.375,3.442 C9.696,0.775 5.227,-0.486 3.193,1.617 C1.025,3.722 3.464,7.651 2.244,10.878 C2.109,11.577 1.16,11.298 0.89,11.718 C1.704,12.56 4.548,12.14 5.497,12 C5.632,11.157 4.413,11.577 4.143,11.157 C4.007,7.791 3.058,2.04 6.173,1.617 C10.104,0.917 10.24,7.229 9.021,11.157 C8.75,11.577 7.666,11.157 7.666,11.718 C8.342,12.56 11.052,12.14 12,12" id="Path"></path>
                </g>
            </g>
            <g id="q55" transform="translate(70.000000, 47.000000)">
                <g id="xfrm56" transform="translate(0.663100, 0.173800)">
                    <path d="M3,7 C3.949,5.455 4.22,-0.156 1.237,1.106 C0.291,2.651 0.018,8.262 3,7" id="Path"></path>
                </g>
            </g>
            <g id="q57" transform="translate(63.000000, 50.000000)">
                <g id="xfrm58" transform="translate(0.887200, 0.173800)">
                    <path d="M3,4 C3.679,2.877 3.679,1.615 2.865,0.773 C-0.523,-0.069 0.291,5.402 3,4" id="Path"></path>
                </g>
            </g>
            <g id="q59" transform="translate(38.000000, 26.000000)">
                <g id="xfrm60" transform="translate(0.679200, 0.795900)">
                    <path d="M11,9 C11.406,9 11.541,9.42 11.949,9 C11.814,8.018 10.865,6.333 9.781,5.633 C10.051,7.458 10.187,10.262 8.426,10.965 C5.987,12.086 2.193,8.859 1.92,5.633 C1.65,1.986 5.987,-0.261 6.934,3.809 C6.934,4.791 5.714,4.511 5.987,5.633 C7.341,4.791 8.967,4.089 9.916,2.687 C9.51,2.126 9.237,2.966 8.696,2.826 C7.612,2.267 7.207,1.005 6.528,0.022 C3.275,0.862 0.431,2.406 0.431,6.053 C0.295,11.805 8.426,14.61 11,9" id="Path"></path>
                </g>
            </g>
            <g id="q61" transform="translate(11.000000, 130.000000)">
                <g id="xfrm62" transform="translate(0.987300, 0.960000)">
                    <path d="M32,5 C32.814,3.036 29.967,1.913 29.021,1.913 C25.903,1.773 25.903,5.7 24.143,6.822 C22.65,6.682 20.89,6.964 20.346,5.842 C20.619,4.298 22.379,5.14 22.65,3.878 C23.193,1.351 17.231,0.511 14.384,1.211 C12.353,1.773 11.404,4.158 10.726,5.982 C9.235,5.982 8.151,7.244 6.661,6.682 C6.526,5.14 7.881,5 8.016,3.456 C8.424,-0.471 3.682,1.351 0.97,2.473 C2.462,6.682 0.021,12.293 2.054,15.662 C3.409,17.764 6.932,18.889 10.59,18.327 C11.675,18.187 14.928,16.784 15.876,18.606 C15.876,20.009 15.198,20.851 14.657,21.693 C15.063,23.797 14.384,25.34 14.792,26.884 C15.741,30.811 18.991,30.531 22.785,29.971 C23.464,30.111 23.193,29.269 23.193,28.849 C23.734,28.849 25.089,28.427 25.768,27.866 C24.684,24.078 27.666,22.113 29.696,20.151 C31.051,17.204 31.459,12.293 29.021,10.471 C28.885,8.227 29.561,6.682 30.375,5.42 C31.051,5.42 31.865,5.56 32,5 M27.393,17.624 C27.936,18.046 27.801,18.187 27.666,19.029 L27.123,19.029 C27.123,18.466 26.852,17.624 27.393,17.624 M25.903,18.046 C26.309,18.606 26.446,19.309 26.309,20.431 C25.089,22.113 21.974,21.553 20.211,20.711 C19.805,21.833 18.315,23.235 18.045,21.133 C18.585,21.133 18.585,21.413 18.991,21.553 C19.399,20.851 19.805,20.151 20.754,20.009 C19.805,19.029 14.522,17.344 16.96,15.802 C17.096,17.344 18.315,18.046 19.94,17.764 C20.619,18.747 21.16,19.029 22.65,18.747 C23.193,18.466 22.923,17.204 23.87,17.204 C24.278,18.327 24.005,19.029 23.87,20.151 C24.005,20.291 24.143,20.431 24.548,20.431 C25.362,19.869 24.954,18.327 25.903,18.046 M26.173,21.973 C26.173,22.815 25.768,23.937 24.954,23.377 C24.954,22.396 25.632,22.255 26.173,21.973 M21.16,12.436 C22.244,13.135 24.143,13.135 23.87,15.38 C22.923,15.38 22.109,15.38 21.566,15.662 C21.431,14.82 21.974,14.82 22.109,14.257 C21.431,13.558 21.025,14.397 20.346,14.397 C20.484,13.558 21.431,13.698 21.16,12.436 M23.193,22.815 C23.329,23.096 23.058,23.235 23.058,23.518 C22.65,23.658 22.244,23.518 22.109,23.377 C21.974,22.675 22.923,22.535 23.193,22.815 M20.754,22.815 C21.295,22.815 21.838,22.675 21.838,23.377 C21.703,23.518 21.431,23.518 20.754,23.518 L20.754,22.815 Z M22.244,17.624 C21.566,17.906 20.619,17.624 20.484,16.784 C21.16,16.924 21.025,16.082 21.703,16.222 C21.703,16.924 22.244,16.924 22.244,17.624 M17.231,9.629 C18.45,10.191 21.566,10.751 20.754,12.013 C19.264,11.171 17.907,10.611 15.741,10.191 C15.741,9.489 15.604,8.646 15.876,8.227 C16.96,8.086 16.823,9.209 17.231,9.629 M22.244,27.727 C20.89,26.884 19.535,26.042 18.991,24.36 C20.619,24.92 21.703,26.182 22.244,27.727 M18.991,26.462 C19.94,26.744 20.619,28.007 19.535,28.566 C19.399,27.727 19.126,27.304 18.991,26.462 M17.231,4.298 C17.907,3.456 19.399,3.175 20.346,3.878 C18.721,4.578 18.45,6.682 17.907,8.646 C17.366,7.804 18.18,7.384 17.501,6.822 C16.552,7.664 16.012,5.982 15.198,6.682 C15.604,5.842 15.876,4.86 15.741,3.456 C16.96,3.456 15.741,5.842 17.096,5.7 C17.366,5.42 17.231,4.86 17.231,4.298 M16.552,26.744 C16.687,26.884 17.366,28.007 16.552,27.866 C16.282,27.727 15.604,26.744 16.552,26.744 M14.657,12.995 C15.063,12.715 16.552,12.575 16.552,13.417 C16.147,14.118 14.657,13.837 14.657,12.995 M14.384,14.257 C14.384,14.82 14.384,15.38 13.843,15.38 C13.573,14.82 13.573,14.118 14.384,14.257 M10.999,15.802 C11.404,16.362 11.404,17.204 10.32,17.204 C10.32,16.362 10.455,15.942 10.999,15.802 M8.695,16.784 C7.61,17.484 5.983,16.924 5.577,15.802 C6.12,15.942 5.848,15.1 6.391,15.24 C7.202,15.662 8.287,15.802 8.695,16.784 M7.881,11.873 C6.932,12.436 6.391,10.891 5.577,11.873 C5.442,9.209 -0.114,7.104 3.682,4.86 C4.357,5.842 3.138,6.402 3.003,7.244 C4.493,8.086 5.577,9.349 5.712,10.891 C6.391,10.891 7.61,10.471 7.881,11.873 M4.223,13.275 C4.223,13.698 3.952,13.978 4.087,14.538 C3.138,14.538 2.462,14.118 2.462,13.275 C3.409,13.135 3.273,13.135 4.223,13.275 M2.462,10.191 C3.138,10.049 3.409,11.733 2.732,11.593 C2.324,11.453 2.189,10.611 2.462,10.191" id="Shape"></path>
                </g>
            </g>
            <g id="q63" transform="translate(26.000000, 33.000000)">
                <g id="xfrm64" transform="translate(0.497600, 0.847700)">
                    <path d="M16,7 C15.594,6.577 15.186,7.419 14.645,7.559 C11.663,5.734 10.038,2.508 7.193,0.406 C6.92,3.913 8.004,7.699 8.14,11.488 C6.244,9.804 2.45,7.279 3.94,4.332 C2.721,4.612 1.501,6.297 0.687,7.559 C2.45,6.437 3.67,8.121 5.295,9.943 C7.056,11.908 8.683,12.891 7.599,15.275 C8.548,15.555 9.089,13.732 10.038,13.31 C9.495,10.083 9.359,6.437 8.683,3.35 C10.714,4.473 11.798,6.437 13.291,8.121 C13.426,9.104 12.748,9.243 12.748,10.083 C13.696,9.804 15.865,7.979 16,7" id="Path"></path>
                </g>
            </g>
            <g id="q65" transform="translate(20.000000, 44.000000)">
                <g id="xfrm66" transform="translate(0.083000, 0.155300)">
                    <path d="M9,11 C10.22,10.718 11.845,8.194 12.115,6.932 C11.304,7.071 11.304,7.773 10.49,7.773 C8.187,6.089 5.748,4.268 3.579,2.162 C3.579,1.46 4.393,1.181 3.987,0.618 C2.63,1.601 1.818,3.002 0.87,4.547 C1.548,5.107 1.818,3.845 2.495,3.845 C4.798,5.53 7.373,7.211 9.406,9.315 C9.541,10.158 9,10.298 9,11" id="Path"></path>
                </g>
            </g>
            <g id="q67" transform="translate(14.000000, 53.000000)">
                <g id="xfrm68" transform="translate(0.863800, 0.540000)">
                    <path d="M13,4 C12.457,3.438 12.457,4.842 11.781,4.7 C9.341,4.7 6.494,0.211 3.244,0.913 C0.94,1.476 -0.687,6.524 3.514,6.804 C3.649,6.245 4.055,6.104 4.055,5.402 C3.785,5.402 3.92,5.123 3.785,4.982 C2.971,4.56 2.43,4.56 1.751,4.7 C1.211,3.86 1.887,2.877 2.295,2.315 C6.224,2.738 8.122,4.982 10.696,6.524 C11.102,7.366 10.018,7.787 10.561,8.069 C11.508,7.787 12.727,4.982 13,4" id="Path"></path>
                </g>
            </g>
            <g id="q69" transform="translate(10.000000, 62.000000)">
                <g id="xfrm70" transform="translate(0.881300, 0.853000)">
                    <path d="M14,1 C12.781,0.858 13.188,2.262 12.375,2.402 C9.393,2.262 5.869,0.718 2.89,0.578 C4.515,4.085 7.632,6.189 9.53,9.416 C7.632,9.275 4.65,8.576 2.619,7.734 C2.349,7.312 2.619,6.189 2.211,5.77 C1.264,6.751 1.399,8.856 0.856,10.398 C2.076,10.538 1.67,9.136 2.484,8.996 C5.869,9.698 10.612,9.275 11.291,12.924 C13.865,8.294 7.089,5.349 5.734,1.983 C8.038,2.402 10.206,2.823 12.24,3.524 C12.51,4.085 12.24,5.067 12.646,5.629 C13.594,4.647 13.459,2.402 14,1" id="Path"></path>
                </g>
            </g>
            <g id="q71" transform="translate(10.000000, 87.000000)">
                <g id="xfrm72" transform="translate(0.357900, 0.186500)">
                    <path d="M11,13 L11,9.633 C8.291,7.809 5.717,5.704 3.143,3.743 C5.717,3.46 10.459,2.618 10.595,5.424 C11.408,4.862 11,1.918 10.865,0.936 C10.054,1.076 10.324,2.618 9.51,2.76 C6.393,2.9 2.872,2.478 0.025,2.9 C2.329,5.987 5.987,7.389 8.561,10.053 C6.801,9.913 3.143,10.333 1.38,9.913 C0.974,9.633 1.109,8.651 0.704,8.231 C-0.11,8.932 0.295,11.877 0.431,12.86 C1.245,12.86 0.839,11.598 1.245,11.315 C3.819,10.896 7.207,10.615 9.646,11.315 C10.054,11.738 10.459,12.158 10.459,13 L11,13 Z" id="Path"></path>
                </g>
            </g>
            <g id="q73" transform="translate(9.000000, 74.000000)">
                <g id="xfrm74" transform="translate(0.766100, 0.371100)">
                    <path d="M12,8 C11.051,6.456 9.018,6.036 7.393,5.193 C5.765,4.351 4.275,3.369 2.65,2.669 C2.379,1.967 2.379,0.984 1.701,0.984 C1.836,2.669 1.022,4.491 1.431,5.755 C2.107,5.755 1.836,4.773 2.242,4.351 C3.326,4.634 4.005,5.193 4.954,5.613 C5.089,7.018 4.683,7.86 4.683,9.123 C4.005,10.104 3.326,9.822 1.972,9.962 C1.295,9.962 1.972,8.56 1.431,8.42 C0.481,8.982 0.887,11.084 0.617,12.489 C1.566,12.629 1.431,11.506 1.836,11.084 C5.089,9.962 8.882,9.402 12,8 M5.63,6.176 C7.122,6.595 8.204,7.298 9.288,8.14 C7.934,8.28 6.579,9.402 5.224,8.982 C5.63,8.28 5.495,7.018 5.63,6.176" id="Shape"></path>
                </g>
            </g>
        </g>
    </g>
</svg>